/* XPM */
static char * form_big_xpm[] = {
"20 20 211 2",
"  	c None",
". 	c #585858",
"+ 	c #635C56",
"@ 	c #B97943",
"# 	c #EAB476",
"$ 	c #747474",
"% 	c #808080",
"& 	c #707070",
"* 	c #645C55",
"= 	c #816751",
"- 	c #CB8E57",
"; 	c #F0AE62",
"> 	c #B6B6B6",
", 	c #E0E0E0",
"' 	c #E1E1E1",
") 	c #DFDFDF",
"! 	c #DEDEDE",
"~ 	c #DAD4CE",
"{ 	c #CD894D",
"] 	c #F5BA7A",
"^ 	c #FD9D2E",
"/ 	c #EDEDED",
"( 	c #FCFCFC",
"_ 	c #E7E7E7",
": 	c #DDDDDD",
"< 	c #CAA88C",
"[ 	c #D39155",
"} 	c #F5BA77",
"| 	c #FD9325",
"1 	c #FE8A09",
"2 	c #EEEEEE",
"3 	c #FFFFFF",
"4 	c #E8E8E8",
"5 	c #FDFDFD",
"6 	c #FDFCFB",
"7 	c #EFE5DC",
"8 	c #D2AB8C",
"9 	c #D8A371",
"0 	c #EFAB63",
"a 	c #FC9930",
"b 	c #FE8A0B",
"c 	c #F58104",
"d 	c #E6E6E6",
"e 	c #E3E3E3",
"f 	c #FAF8F5",
"g 	c #EFE5DB",
"h 	c #D7AF8E",
"i 	c #DBA470",
"j 	c #EDA45A",
"k 	c #FC9E39",
"l 	c #FC8709",
"m 	c #F28004",
"n 	c #D56C04",
"o 	c #EBE8E7",
"p 	c #F1E4DB",
"q 	c #E0BEA2",
"r 	c #D4965F",
"s 	c #EFAA61",
"t 	c #FC9D38",
"u 	c #FB8508",
"v 	c #F27F03",
"w 	c #D46C04",
"x 	c #954803",
"y 	c #E9E9E9",
"z 	c #E6DDD8",
"A 	c #E6C6B1",
"B 	c #DB9B6B",
"C 	c #F4BC85",
"D 	c #FC962D",
"E 	c #FC8505",
"F 	c #D66D04",
"G 	c #9D4A04",
"H 	c #431F02",
"I 	c #F1F1F1",
"J 	c #EFE1D7",
"K 	c #F5D7C2",
"L 	c #F9D3B8",
"M 	c #EE9E6E",
"N 	c #F68725",
"O 	c #F07D06",
"P 	c #D36C03",
"Q 	c #9B4904",
"R 	c #3A1B02",
"S 	c #EAD1C2",
"T 	c #F3D4BC",
"U 	c #F9D7BD",
"V 	c #F2BB9B",
"W 	c #DD8154",
"X 	c #DB712A",
"Y 	c #C86312",
"Z 	c #944806",
"` 	c #472102",
" .	c #EFEFEF",
"..	c #E2E1DD",
"+.	c #E9CBB6",
"@.	c #F6CFB2",
"#.	c #F4C7A8",
"$.	c #D79371",
"%.	c #B2673D",
"&.	c #9D5A2F",
"*.	c #7C421A",
"=.	c #51290E",
"-.	c #2A2019",
";.	c #FCFAF8",
">.	c #EAD7C9",
",.	c #EECFB7",
"'.	c #F0C3A5",
").	c #DCA282",
"!.	c #AB6D4D",
"~.	c #754D2D",
"{.	c #5D4733",
"].	c #544234",
"^.	c #483A31",
"/.	c #303030",
"(.	c #FBFBFA",
"_.	c #F8F1EC",
":.	c #E7B598",
"<.	c #ECBB9D",
"[.	c #D49B7C",
"}.	c #A86C4C",
"|.	c #785037",
"1.	c #463D32",
"2.	c #4C4946",
"3.	c #877D6F",
"4.	c #928673",
"5.	c #E1DDD9",
"6.	c #D8CCBC",
"7.	c #9B8770",
"8.	c #A47A5F",
"9.	c #825C46",
"0.	c #5A473B",
"a.	c #66605B",
"b.	c #9D9C99",
"c.	c #A5A5A3",
"d.	c #B1A797",
"e.	c #92846F",
"f.	c #E8E6E5",
"g.	c #DFD9D1",
"h.	c #A69A88",
"i.	c #474034",
"j.	c #5D4E43",
"k.	c #796B62",
"l.	c #8F8981",
"m.	c #A9A5A0",
"n.	c #C9C6C4",
"o.	c #D5CBBC",
"p.	c #CAB99F",
"q.	c #92836D",
"r.	c #E4DED6",
"s.	c #CDC2B1",
"t.	c #857A6A",
"u.	c #605A50",
"v.	c #7B746B",
"w.	c #A7A094",
"x.	c #CCC2B3",
"y.	c #D9CDBD",
"z.	c #E1D5C5",
"A.	c #E6D4BA",
"B.	c #D2BC9C",
"C.	c #928269",
"D.	c #E0D9CD",
"E.	c #CCBFA9",
"F.	c #9C9383",
"G.	c #B2A99B",
"H.	c #C5BAAA",
"I.	c #DDCFBA",
"J.	c #EDDCC3",
"K.	c #EBD8BD",
"L.	c #E9D5B7",
"M.	c #E7D1B0",
"N.	c #D1B995",
"O.	c #928066",
"P.	c #B4B4B3",
"Q.	c #E5E2DB",
"R.	c #EFE7DA",
"S.	c #EDE3D3",
"T.	c #ECE0CC",
"U.	c #EADBC6",
"V.	c #E9D8BF",
"W.	c #E7D4B8",
"X.	c #E5D1B2",
"Y.	c #E3CDAC",
"Z.	c #E2C9A5",
"`.	c #CEB48D",
" +	c #927F62",
".+	c #A7A49D",
"++	c #C9C5BA",
"@+	c #CAC4B7",
"#+	c #C8C1B0",
"$+	c #C8BDA8",
"%+	c #C7B9A1",
"&+	c #C5B59A",
"*+	c #C4B293",
"=+	c #C3AE8C",
"-+	c #C2AA85",
";+	c #C1A67E",
">+	c #BEA177",
",+	c #927D5F",
"'+	c #5B5A58",
")+	c #5D5B58",
"!+	c #5D5B57",
"~+	c #5C5A55",
"{+	c #5C5953",
"]+	c #5C5851",
"^+	c #5B574E",
"/+	c #5B564C",
"(+	c #5B544A",
"_+	c #5B5348",
":+	c #5A5246",
"<+	c #5A5145",
"[+	c #4D473E",
"      . . . . . . . . . . . . . . + @ # ",
"      . $ % % % % % % % % % % & * = - ; ",
"      . > , ' ' ' ) , ' ' ' ! ~   { ] ^ ",
"      . > / ( ( ( _ / ( ( ( : < [ } | 1 ",
"      . > 2 3 3 3 4 / 5 6 7 8 9 0 a b c ",
"      . > d 2 2 2 e / f g h i j k l m n ",
"      . > e 4 4 4 ' o p q r s t u v w x ",
"      . > 2 3 3 3 y z A B C D E m F G H ",
"      . > 2 3 3 3 I J K L M N O P Q R   ",
"      . > e 4 4 4 S T U V W X Y Z `     ",
"      . > d  ./ ..+.@.#.$.%.&.*.=.-.    ",
"      . > 2 3 ;.>.,.'.).!.~.{.].^./.    ",
"      . > / (._.:.<.[.}.|.1.2.3.4./.    ",
"      . > , 5.6.7.8.9.0.a.b.c.d.e./.    ",
"      . > f.g.h.i.j.k.l.m.n.o.p.q./.    ",
"      . > r.s.t.u.v.w.x.y.z.A.B.C./.    ",
"      . > D.E.F.G.H.I.J.K.L.M.N.O./.    ",
"      . P.Q.R.S.T.U.V.W.X.Y.Z.`. +/.    ",
"      . .+++@+#+$+%+&+*+=+-+;+>+,+/.    ",
"      . '+)+!+~+{+]+^+/+(+_+:+<+[+/.    "};
