/* XPM */
static char * forms_xpm[] = {
"16 16 107 2",
"  	c None",
". 	c #585858",
"+ 	c #C47D41",
"@ 	c #FACB8D",
"# 	c #DEDEDE",
"$ 	c #C37B40",
"% 	c #FAC78C",
"& 	c #FE8F0C",
"* 	c #FFFFFF",
"= 	c #CECECE",
"- 	c #FAC689",
"; 	c #FE880E",
"> 	c #FE8801",
", 	c #FCFCFC",
"' 	c #FEFEFE",
") 	c #E5D6C8",
"! 	c #FAC98F",
"~ 	c #FD8810",
"{ 	c #FE8803",
"] 	c #EC7A03",
"^ 	c #FDFDFD",
"/ 	c #E7DACC",
"( 	c #FD850C",
"_ 	c #FE8703",
": 	c #E47604",
"< 	c #A54E04",
"[ 	c #ECDAD2",
"} 	c #D38F5D",
"| 	c #F8C58D",
"1 	c #FE8406",
"2 	c #FE8804",
"3 	c #A34C04",
"4 	c #1C0C01",
"5 	c #EDEDED",
"6 	c #F4D6C1",
"7 	c #FFE2CD",
"8 	c #EB9260",
"9 	c #FA800A",
"0 	c #E47702",
"a 	c #A04A04",
"b 	c #210F01",
"c 	c #DFDFDF",
"d 	c #EBB698",
"e 	c #FEE5CA",
"f 	c #F1B492",
"g 	c #D37043",
"h 	c #CF6524",
"i 	c #A04B0A",
"j 	c #231001",
"k 	c #E4E0D8",
"l 	c #EFD0B5",
"m 	c #FFD1B1",
"n 	c #C67E5D",
"o 	c #87542B",
"p 	c #5C4733",
"q 	c #241008",
"r 	c #303030",
"s 	c #FDFDFC",
"t 	c #EFB493",
"u 	c #F7C9AC",
"v 	c #C67D5A",
"w 	c #825234",
"x 	c #332E23",
"y 	c #474544",
"z 	c #BCAB90",
"A 	c #DCD0BF",
"B 	c #897862",
"C 	c #A36F52",
"D 	c #4C392C",
"E 	c #5B5957",
"F 	c #B0B0AF",
"G 	c #BCA88A",
"H 	c #FAF6F2",
"I 	c #A09380",
"J 	c #1A1812",
"K 	c #534F4C",
"L 	c #9F9C96",
"M 	c #C4BFB9",
"N 	c #DAD6D3",
"O 	c #E9D6BA",
"P 	c #BCA685",
"Q 	c #DAC8AB",
"R 	c #736A5A",
"S 	c #9C9488",
"T 	c #BDB4A4",
"U 	c #EEDFC8",
"V 	c #ECDAC0",
"W 	c #E9D6B9",
"X 	c #E7D1B0",
"Y 	c #BCA37F",
"Z 	c #F4EDE1",
"` 	c #F2E8D8",
" .	c #F0E4D0",
"..	c #EEDEC8",
"+.	c #ECDABF",
"@.	c #E9D6B8",
"#.	c #E5CCA7",
"$.	c #BCA178",
"%.	c #C6C1B6",
"&.	c #C4BDAC",
"*.	c #C3B8A3",
"=.	c #C2B39A",
"-.	c #C0AF91",
";.	c #BFAA88",
">.	c #BEA57F",
",.	c #BDA076",
"'.	c #BC9E73",
"    . . . . . . . . . . . . + @ ",
"    . # # # # # # # # #   $ % & ",
"    . # * * * # * * * = $ - ; > ",
"    . # * * * # , ' ) $ ! ~ { ] ",
"    . # # # # # ^ / $ ! ( _ : < ",
"    . # * * * # [ } | 1 2 : 3 4 ",
"    . # * * * 5 6 7 8 9 0 a b   ",
"    . c # # # d e f g h i j     ",
"    . # * * k l m n o p q r     ",
"    . # * s t u v w x y z r     ",
"    . # # A B C D E F F G r     ",
"    . # H I J K L M N O P r     ",
"    . # Q R S T U V W X Y r     ",
"    . # Z `  ...+.@.X #.$.r     ",
"    . %.%.&.*.=.-.;.>.,.'.r     ",
"    . r r r r r r r r r r r     "};
