/* XPM */
static char * macros_xpm[] = {
"14 14 120 2",
"  	c None",
". 	c #564F44",
"+ 	c #554C41",
"@ 	c #534D44",
"# 	c #817867",
"$ 	c #756A5C",
"% 	c #756B5E",
"& 	c #70685C",
"* 	c #A0907A",
"= 	c #827766",
"- 	c #998A75",
"; 	c #C8B498",
"> 	c #887A68",
", 	c #C5B195",
"' 	c #887B68",
") 	c #A8977F",
"! 	c #9A8A75",
"~ 	c #6D6356",
"{ 	c #DEC7A9",
"] 	c #A0907B",
"^ 	c #C4B196",
"/ 	c #DDC7A8",
"( 	c #A1917C",
"_ 	c #CDB99C",
": 	c #D9C3A5",
"< 	c #A2927C",
"[ 	c #C5B296",
"} 	c #7A7165",
"| 	c #6E6456",
"1 	c #E1C9AB",
"2 	c #A89781",
"3 	c #BFAD93",
"4 	c #E1CAAB",
"5 	c #B6A48B",
"6 	c #D3BEA1",
"7 	c #B4A38A",
"8 	c #9B8C76",
"9 	c #9C8D76",
"0 	c #92836F",
"a 	c #897C69",
"b 	c #8A7C69",
"c 	c #5F564B",
"d 	c #AC9A83",
"e 	c #E5CEAD",
"f 	c #B3A188",
"g 	c #CBB79A",
"h 	c #877A67",
"i 	c #B3A287",
"j 	c #E0C9A9",
"k 	c #E1CBAB",
"l 	c #E2CBAD",
"m 	c #D8C2A5",
"n 	c #6B6255",
"o 	c #595349",
"p 	c #BDAB90",
"q 	c #968772",
"r 	c #8F806C",
"s 	c #D6C1A3",
"t 	c #B4A388",
"u 	c #C5B295",
"v 	c #B2A088",
"w 	c #796D5D",
"x 	c #978973",
"y 	c #90826E",
"z 	c #DCC6A8",
"A 	c #E4CDAD",
"B 	c #7D705F",
"C 	c #756C5F",
"D 	c #B6A48A",
"E 	c #C5B196",
"F 	c #B2A188",
"G 	c #9E8F78",
"H 	c #B3A087",
"I 	c #B39F86",
"J 	c #7A6E5D",
"K 	c #867866",
"L 	c #B09F87",
"M 	c #AD9C83",
"N 	c #E3CDAC",
"O 	c #E5CEAE",
"P 	c #9D8C76",
"Q 	c #796E5E",
"R 	c #E3CCAA",
"S 	c #E5CDAD",
"T 	c #E0CAAB",
"U 	c #E4CDAE",
"V 	c #DDC7A9",
"W 	c #C0AD92",
"X 	c #DEC8A9",
"Y 	c #847764",
"Z 	c #6B6254",
"` 	c #D4BFA1",
" .	c #E3CCAD",
"..	c #BFAC91",
"+.	c #5E574C",
"@.	c #A89880",
"#.	c #E3CDAD",
"$.	c #E3CCAC",
"%.	c #786E5F",
"&.	c #867A6A",
"*.	c #C9B699",
"=.	c #DEC7A7",
"-.	c #D7C2A4",
";.	c #9A8C77",
">.	c #797060",
",.	c #D3BFA0",
"'.	c #E0C9AA",
").	c #E5CDAE",
"!.	c #E2CCAB",
"~.	c #928470",
"{.	c #565148",
"].	c #C6B297",
"^.	c #E5CEAF",
"/.	c #E4CEAE",
"(.	c #8E806E",
"_.	c #676056",
":.	c #C6B398",
"<.	c #E2CDAE",
"[.	c #E1CBAD",
"}.	c #A49681",
"      . + @ # $   %         ",
"& * = - ; > , ; ' ) !       ",
"~ { ] ^ / ( _ : < [ ; }     ",
"| 1 2 3 4 5 6 7 8 9 0 a b   ",
"c { 0 d e f g h i j k l m n ",
"o p q r s t u v w x y z A B ",
"C D E F G H I J K L M N O P ",
"Q R O S T U V W X O O O A Y ",
"Z ` O O O O O O O O O  ...+.",
"  @.#.O O O O O O O $.W %.  ",
"  &.*.A j =.A $.O -.;.~     ",
"    >.,.4 '.).O !.~.        ",
"    {.].O O ^./.T (.        ",
"    _.:.O O /.<.[.}.        "};
