/* XPM */
static char * module_big_xpm[] = {
"24 20 2 1",
" 	c None",
".	c #000000",
"                        ",
"                        ",
"                        ",
"   . ..  .          .   ",
"  .  .. .            .  ",
"  .    .              . ",
"  .    .              . ",
" .... ..   ...  ..    ..",
"  .   ..    ..  .     ..",
"  .   ..     .. .     ..",
"  .   ..      ..      ..",
"  .   ..      ..      ..",
"  .   ..     . ..     ..",
"  .    .    .   ..    . ",
" ...   ..  ... ....  .. ",
"        .            .  ",
"                        ",
"                        ",
"                        ",
"                        "};
