/* XPM */
static char * query_xpm[] = {
"10 12 31 1",
" 	c None",
".	c #C9C5C5",
"+	c #C2BEBE",
"@	c #D0CCCC",
"#	c #DAD5D5",
"$	c #C1BDBD",
"%	c #9B9B9B",
"&	c #B6B5B5",
"*	c #C0BCBC",
"=	c #9D9C9C",
"-	c #D4D1D1",
";	c #CCC8C8",
">	c #8C8C8C",
",	c #A09F9F",
"'	c #959696",
")	c #A7A6A6",
"!	c #C6C1C1",
"~	c #8D8E8E",
"{	c #A4A5A5",
"]	c #BEBBBB",
"^	c #C3C0C0",
"/	c #9D9E9E",
"(	c #AFACAC",
"_	c #949595",
":	c #B9B7B7",
"<	c #AEABAB",
"[	c #B0AEAE",
"}	c #A2A2A2",
"|	c #A5A5A5",
"1	c #979797",
"2	c #ACABAB",
"    .+@   ",
" #$%&*%=- ",
" ;>    ,' ",
" )>    !~+",
" +{    ]~+",
"      ^~/ ",
"     (_:  ",
"    <[    ",
"    }     ",
"          ",
"    |+    ",
"   +12    "};
