/* XPM */
static char * reports_xpm[] = {
"16 16 76 1",
" 	c None",
".	c #45372B",
"+	c #4F3939",
"@	c #E7D1AA",
"#	c #EBD7B9",
"$	c #D1B692",
"%	c #000000",
"&	c #F0DBB9",
"*	c #F0E7D9",
"=	c #F5EBDF",
"-	c #CDB18C",
";	c #050403",
">	c #4C3E31",
",	c #EFE4D7",
"'	c #FBF7F3",
")	c #FFFCF9",
"!	c #FDF6EF",
"~	c #554542",
"{	c #5A4A47",
"]	c #55473A",
"^	c #F2E9DB",
"/	c #FBF6F0",
"(	c #FEFBF8",
"_	c #FEFAF7",
":	c #FCF4EF",
"<	c #FAF3ED",
"[	c #413533",
"}	c #57483A",
"|	c #F7EDDE",
"1	c #FEF8F0",
"2	c #FEF8EF",
"3	c #FDF7F3",
"4	c #F9F1E7",
"5	c #FBF2E7",
"6	c #594946",
"7	c #EFD8B0",
"8	c #A78568",
"9	c #FBF2E3",
"0	c #FEF5E8",
"a	c #FDF5EA",
"b	c #F9EFE2",
"c	c #F7EDDC",
"d	c #F7ECDC",
"e	c #4D3D30",
"f	c #F1E2CA",
"g	c #FCEFD9",
"h	c #FEF2DC",
"i	c #F8EAD3",
"j	c #F4E5CE",
"k	c #EEDBC5",
"l	c #F5E5C7",
"m	c #F7E7C9",
"n	c #FCEED0",
"o	c #F6E6C8",
"p	c #F4E1C3",
"q	c #E9D8BC",
"r	c #E2CFB1",
"s	c #AE9676",
"t	c #E5CFA8",
"u	c #E4CCA5",
"v	c #EFD8B6",
"w	c #EBD7B5",
"x	c #E7D3B4",
"y	c #D7BD99",
"z	c #FFFCFB",
"A	c #FFF8E9",
"B	c #E2C7A3",
"C	c #806553",
"D	c #BFA582",
"E	c #DBC19D",
"F	c #020200",
"G	c #E1C6A2",
"H	c #836854",
"I	c #B89F7D",
"J	c #FEF7E8",
"K	c #5D4B47",
"      ...       ",
"     +@#$%%     ",
"     +&*=#-;%   ",
"     >,'))!#-~{ ",
"     ]^/(_:<{[{%",
"     }|12345{67%",
"    .890abcd%%% ",
"    efghhijk;   ",
"    .lmnopqr%   ",
" ...stuvw#xy%   ",
".zABCCDyEByF    ",
".-#zAGHCIDD%    ",
" %%-#zJB{Ks%    ",
"   %%-#{[{%     ",
"     %%{{7%     ",
"       %%%      "};
