/* XPM */
static char * debug_xpm[] = {
"16 16 4 1",
" 	c None",
".	c #ED2D2D",
"+	c #635757",
"@	c #000000",
"                ",
"     .....      ",
"   ...   ...    ",
"  ..  +@+  ..   ",
" .... @@@   ..  ",
" .@+..+@+  +@.  ",
".. @+..@@ +@ .. ",
".   @@..@@@   . ",
".    @@..@    . ",
". @@@@@@..@@@ . ",
"..   @@@@..  .. ",
" .  @@@@@@.. .  ",
" ..@+ @@@ +...  ",
"  ..       ..   ",
"   ...   ...    ",
"     .....      "};
