/* XPM */
static char * pk_xpm[] = {
"16 16 5 1",
" 	c None",
".	c #FFBF00",
"+	c #1C59DD",
"@	c #000000",
"#	c #E8AC17",
"                ",
"     ....  +++  ",
"    ..@@.. +  + ",
"    ...... +  + ",
"    ...... +++  ",
"     ....  +    ",
"      .#   +    ",
"      .#        ",
"      .#   +  + ",
"      .#.  + +  ",
"      .#.. ++   ",
"      .#   + +  ",
"      .#.  +  + ",
"      .#.. +  + ",
"                ",
"                "};
