/* XPM */
static char * logo_xpm[] = {
"93 73 16 1",
" 	c None",
".	c #B2B2B2",
"+	c #C2C2C2",
"@	c #848484",
"#	c #929292",
"$	c #FFFC10",
"%	c #E2E2E2",
"&	c #D2D2D2",
"*	c #A2A2A2",
"=	c #6D6D6D",
"-	c #3A3A3A",
";	c #F3F164",
">	c #FFFFFF",
",	c #F4F4F4",
"'	c #ECEB95",
")	c #FAF86B",
"                                                                                    +        ",
"                                                                                  .#+#.      ",
"                                                                                +@.$$$.@+    ",
"                                                                              +**%$$$$$@-#+  ",
"                                                                             *#&$$$$$+=*.-=. ",
"                                                                           +#+$$$$$%#@&$$=-@+",
"                                                                         +#.$$$$$%*=+$$+=#@*+",
"                                                                       +**%$$$$$.=*$$&#@&#** ",
"                                                                      **&$$$$$+=*$$$##*==*+* ",
"                                                                    +=+$$$$$%@=$>).=*#-+,&=+ ",
"                                                                  +**$$$$$%*=.>>+#@*#-#>.@+  ",
"                                                                +#*%$$$$$.=.$$&@#*@*+=>.#    ",
"                                                               .*&$$$$$&=#;$$*@*#@'$=%&@     ",
"                                                             +@+$$$$$%@@;$$.=**@&$$**,#+     ",
"                                                           +#.$$$$$$*=.$$+##*@.,&$&=,..      ",
"                                                         +#.%$$$$$.=.$$;@#*@.%&@#=-&%@       ",
"                                                        .@&$$$$$&=#$$$*=.#@'$@@%%==*=+       ",
"                                                      .*.$$$$$&#@&$$.##*@.$$@-*.#+ ++        ",
"                               ++                   +@*$$$$$$#=.$$+=##@*$$$+@,-.             ",
"                            +****#*                *#&$$$$$.=*$$;@@*@#'$$+.=,+*              ",
"                          +***#@*%+-.            .@+$$$$$&@#$$;*=.*=&$$'@##-*#               ",
"                        +.*#------+.-*+ +=@+   +#.$$$$$%#@+$$.@#.=-@#+*=&,.##+               ",
"                       .**--*%$$$*-&*=-=.@#.*.#.%$$$$$#=+$$+=**@==+%*---##+                  ",
"                     +@.=-@$$$$$$$@->+.%$..%==%$$$$$+=*$$;#@.@*+-#&#. +##                    ",
"                   +**@--&$$$$$$$$&-%$$$$*-@+$$$$$&##&$$*@###&,=%@=+                         ",
"                  **#--.$$$$$$$$$$$-+$$$$%.$$$$$$@=+$$.@*#@+$$**>#+                          ",
"                .*.=-#$$$$$$$$$$$$$=+$$$$$$$$$$.=.$$'##.@*$$$%=,..                           ",
"              +#.=-=$$$$$$$$$$$$$$$=+$$$$$$$$+=#$$'#@.@@$$$$$=+,@                            ",
"             .#@--&$$$$$$$$$$$$$$$$-+$$$$$$&@@&$$*@##@+$$$$&@=#@+                            ",
"            ##--.$$.-*$$$$$$$$$$$$$-.$$$$$@@$$$.=*#@+$$$$$#@&%-#                             ",
"           *#-@$$&@#+#$$$$$$$$$$$$$=.$$$+=.$$'@#.@*$$$$$$#-.+@+                              ",
"          *@-*$$#@&$&#$$$$$$$$$$$$$=.$$#@'$&#####%$$$$$$+@,-*                                ",
"         +=-.$*=+$$$+@$$$$$$$$$$$$$=+%=*$'@@.##&$$$$$$$$@%&*                                 ",
"         @-@$##$$$$*=@$$$$$$$$$$$$$===+&#=..@.$$$$$$$$$@@,*+                                 ",
"        .=-$*@$$$+=++#$$$$$$$$$$$$+--#@#++@*$$$$$$$$$*@@-=.                                  ",
"       +@-&&=$$$+=+ +#$$$$$$$$$$$*-=.+&.@#%$$$$$$$$+=.,+@*                                   ",
"       *-=$@;$$&=   +#$$$$$$$$$$%=%,*==+%$$$$$$$$$*--*#+                                     ",
"      +@-&$#*;$=+   +#$$$$$$$$$$$==-#+#$$$$$$$$$+=*,--                                       ",
"      +--$$$*#=*    +#$$$$$$$$$$$+*-+&#$$$$$$$+@#%+*.                                        ",
"      *-#$$$$$*=.   +#$$$$$$$$$$$$$-.&#$$$$$%@@&,#*+                                         ",
"     +=-&$$$$$$$*@+ +@$$$$$$$$$$$$$-.&@$$$+*=+%.#+                                           ",
"     *-=$$$$$$$$$%##*#$$$$$$$$$$$$$-*&#$+=--*+#+                                             ",
"     @-.$$$$$$$$$$$+#$$$$$$$$$$$$$$-.&-@#&@'*-+                                              ",
"    .@-$+=.$$$$$$$$$$$$$$$$$$$$$$$$-.$@&$$@$$*+                                              ",
"    *-@$=%#@&$$$$$$$$$$$$$$$$$$$$$$-*$$$$'=+$.+                                              ",
"   +#-'.#$$+-@+$$$$$$$$$$$$$$$$$$$$-*$$$.=*@*#+                                              ",
"   +--$@&$$*++##%$$$$$$$$$$$$$$$$$$-*$$=#%$$.-+                                              ",
"   #-.&@$$%#   +=$$$$$$$$$$$$$$$$$$-*$=+$$$+#.                                               ",
"  +=-'*.$$..   +@$$$*.$$$$$$$$$$$$$-.#*$$$.#                                                 ",
"  #-@$@$$$#+   @&$$+=@$$$$$$$$$$$$$-#@$$$.*                                                  ",
" +=-&&@$$&@   .*$$$=&#$$$$$$$$$$$$+-=&$$+#                                                   ",
" .=-$#+$$*+   @%$$*.%#$$$$$$$$$$$$#-@$$$@+                                                   ",
" .-@$=$$$=   .+$$%=$%#$$$$$$$$$$$$--.$$.*                                                    ",
" .-.$@$$+*  +@$$$#.$%#$$$$$$$$$$$+-=%$$#+                                                    ",
"+*-''@$$*+  @+$$&@$$%@$$$$$$$$$$%-=*$$%#                                                     ",
"+@-$$=$$@+ +#$$$@&$$+-$$$$$$$$$$@-=%$$.+                                                     ",
"+#-%$#.$#+ #%$$.#$$$==$$$$$$$$$+-=.$$%#                                                      ",
"+*-+$$=%*+.*$$$=$$$.##$$$$$$$$%-=@$$$*+                                                      ",
"+.-=$$+=%==%$$#*$$$@ #%$$$$$$+-==$$$+@                                                       ",
" .+-&$$##-.$$&@$$$*+ #%$$$$$@-==%$$%@                                                        ",
" *+=-$$$@#$$$#+$$&#  #$$$$+--@=%$$$#+                                                        ",
"  @%-=$$$$$$&=$$$@+ =.$$%=-@@@$$$$#+                                                         ",
"  +*&-*$$$$$=%$$+=.@'$$@--*@*$$$&@+                                                          ",
"   *+*-%$$$.*$$$-=+$$*--@#*%$$$.#+                                                           ",
"    @%=-$$$*@+#=*$$&--#@@%$$$+@.                                                             ",
"    +#%-=$$$*@*$$'@-=*=.$$$&.#+                                                              ",
"     +.&-.$$$$$$@-=#@*$$$$*#+                                                                ",
"      *+*-*$$$*--#@#%$$$+@+                                                                  ",
"       @&*-----##@&$$$&#.                                                                    ",
"       +@+%+*.*@.$$$%.#+                                                                     ",
"        +*==.*.$$$$.*+                                                                       ",
"          +@#&$$$.@+                                                                         ",
"            +####.                                                                           "};
