/* XPM */
static char * macro_big_xpm[] = {
"20 20 240 2",
"  	c None",
". 	c #564F44",
"+ 	c #554D42",
"@ 	c #544C42",
"# 	c #585148",
"$ 	c #786F60",
"% 	c #7B7162",
"& 	c #756A5C",
"* 	c #756B5E",
"= 	c #635B4E",
"- 	c #695F51",
"; 	c #665C50",
"> 	c #625B4F",
", 	c #857A69",
"' 	c #8A7E6C",
") 	c #867968",
"! 	c #807565",
"~ 	c #817666",
"{ 	c #70685C",
"] 	c #7A7062",
"^ 	c #9B8C77",
"/ 	c #8E816E",
"( 	c #877B69",
"_ 	c #928470",
": 	c #B09E86",
"< 	c #A5957E",
"[ 	c #897B69",
"} 	c #B2A188",
"| 	c #BFAC91",
"1 	c #B5A38A",
"2 	c #8E806D",
"3 	c #998A74",
"4 	c #A0907A",
"5 	c #9A8A75",
"6 	c #6E6558",
"7 	c #807465",
"8 	c #BCA990",
"9 	c #A89781",
"0 	c #9D8E79",
"a 	c #B3A189",
"b 	c #CAB69A",
"c 	c #BCA98F",
"d 	c #9C8C78",
"e 	c #C0AD92",
"f 	c #CEB99C",
"g 	c #C6B397",
"h 	c #9D8E78",
"i 	c #AC9B83",
"j 	c #B8A68C",
"k 	c #B6A38A",
"l 	c #938674",
"m 	c #6D6356",
"n 	c #847767",
"o 	c #D4BEA1",
"p 	c #BBA88F",
"q 	c #AC9B84",
"r 	c #C2B095",
"s 	c #D6C1A3",
"t 	c #C8B499",
"u 	c #AB9A83",
"v 	c #C7B398",
"w 	c #CEBA9D",
"x 	c #C5B196",
"y 	c #A4947E",
"z 	c #AF9E85",
"A 	c #B8A58C",
"B 	c #908371",
"C 	c #807667",
"D 	c #6E6456",
"E 	c #857867",
"F 	c #D6BFA2",
"G 	c #BFAB92",
"H 	c #AF9E86",
"I 	c #BFAD93",
"J 	c #D7C1A4",
"K 	c #D0BB9E",
"L 	c #B9A78D",
"M 	c #CDB99D",
"N 	c #C4B096",
"O 	c #9E8E78",
"P 	c #9C8D76",
"Q 	c #92836F",
"R 	c #8C7E6B",
"S 	c #897C69",
"T 	c #8A7C69",
"U 	c #645A4E",
"V 	c #7C7061",
"W 	c #D3BDA0",
"X 	c #B5A28A",
"Y 	c #B2A088",
"Z 	c #D5BFA1",
"` 	c #D1BC9E",
" .	c #B6A48B",
"..	c #C8B498",
"+.	c #B1A087",
"@.	c #998B75",
"#.	c #A99980",
"$.	c #BFAC90",
"%.	c #CBB799",
"&.	c #C9B599",
"*.	c #BAA88F",
"=.	c #827665",
"-.	c #5D554A",
";.	c #74695B",
">.	c #C5B297",
",.	c #978873",
"'.	c #CCB89B",
").	c #B6A48A",
"!.	c #C4B195",
"~.	c #B09F86",
"{.	c #998A75",
"].	c #9B8C76",
"^.	c #B3A288",
"/.	c #C2AF93",
"(.	c #C1AE93",
"_.	c #D6C1A4",
":.	c #DEC8AA",
"<.	c #D2BDA0",
"[.	c #887B69",
"}.	c #5C554B",
"|.	c #6F6659",
"1.	c #B3A289",
"2.	c #A89880",
"3.	c #988974",
"4.	c #BEAB90",
"5.	c #C5B296",
"6.	c #B5A489",
"7.	c #C0AD91",
"8.	c #A2927C",
"9.	c #7F7362",
"0.	c #8D806C",
"a.	c #938570",
"b.	c #E0C9AA",
"c.	c #DAC4A6",
"d.	c #948570",
"e.	c #6F675B",
"f.	c #7E7364",
"g.	c #BAA78D",
"h.	c #B7A48B",
"i.	c #AB9A82",
"j.	c #AA9981",
"k.	c #AD9C83",
"l.	c #B4A187",
"m.	c #B6A289",
"n.	c #9E8D77",
"o.	c #857865",
"p.	c #847664",
"q.	c #AA9982",
"r.	c #A7977F",
"s.	c #D0BC9E",
"t.	c #E3CCAC",
"u.	c #DDC7A8",
"v.	c #A6957D",
"w.	c #776D5E",
"x.	c #887C6A",
"y.	c #C4B094",
"z.	c #D2BC9F",
"A.	c #CBB79A",
"B.	c #C3B094",
"C.	c #C4B095",
"D.	c #CBB69A",
"E.	c #C9B498",
"F.	c #B2A087",
"G.	c #A1917B",
"H.	c #C1AD93",
"I.	c #C9B598",
"J.	c #DCC6A7",
"K.	c #E4CEAD",
"L.	c #A1917A",
"M.	c #766C5C",
"N.	c #8B7E6B",
"O.	c #D5C0A1",
"P.	c #E5CEAE",
"Q.	c #E5CDAD",
"R.	c #E2CCAC",
"S.	c #E2CCAD",
"T.	c #E4CDAE",
"U.	c #E0C9AB",
"V.	c #D3BEA1",
"W.	c #E1CBAB",
"X.	c #D3BEA0",
"Y.	c #90826E",
"Z.	c #6C6355",
"`.	c #817664",
" +	c #DFC9A9",
".+	c #E2CBAC",
"++	c #E4CDAD",
"@+	c #756B5C",
"#+	c #897D6A",
"$+	c #B6A58B",
"%+	c #E4CEAE",
"&+	c #D5BFA2",
"*+	c #B7A58C",
"=+	c #928571",
"-+	c #73695B",
";+	c #9E8F79",
">+	c #C3B095",
",+	c #DEC8A9",
"'+	c #DBC5A7",
")+	c #CDB99C",
"!+	c #B3A188",
"~+	c #988A76",
"{+	c #786E5F",
"]+	c #867A6A",
"^+	c #AE9E86",
"/+	c #D1BD9F",
"(+	c #E1CAAA",
"_+	c #DFC8A8",
":+	c #E4CCAC",
"<+	c #9A8C77",
"[+	c #7B6F60",
"}+	c #8F8370",
"|+	c #A69880",
"1+	c #D8C3A4",
"2+	c #DEC8A8",
"3+	c #E4CCAD",
"4+	c #E5CDAE",
"5+	c #E3CDAC",
"6+	c #A5957F",
"7+	c #6B6456",
"8+	c #897D6B",
"9+	c #CEBA9C",
"0+	c #E2CBAB",
"a+	c #90826F",
"b+	c #585249",
"c+	c #796F61",
"d+	c #C6B297",
"e+	c #E5CEAF",
"f+	c #E3CDAD",
"g+	c #E0CAAB",
"h+	c #B09F88",
"i+	c #908270",
"j+	c #645D53",
"k+	c #817768",
"l+	c #C6B398",
"m+	c #E3CEAE",
"n+	c #E2CDAE",
"o+	c #E1CBAD",
"p+	c #BAA890",
"q+	c #A0927D",
"          . + @ # $ % &   * *           ",
"          = - ; > , ' )   ! ~           ",
"{ ] ^ / ( _ : < [ } | 1 2 3 4 5         ",
"6 7 8 9 0 a b c d e f g h i j k l       ",
"m n o p q r s t u v w x y z j A B C     ",
"D E F G H I J K L M N H O P 3 Q R S T   ",
"U V W X 4 Y Z `  ...+.@.#.$.%.&.t x *.=.",
"-.;.>.i ,.4 '.f ).!.~.{.].^./.(._.:.<.[.",
"}.|.1.2.3.Q 4.5.6.7.j 8.9.0.3.a.v b.c.d.",
"e.f.~.g.h.i.j.k.l.m.n.o.p.^ q.r.s.t.u.v.",
"w.x.y.z.<.A.B.C.D.E.F.G.: H.b I.J.K.J.L.",
"M.N.O.t.P.Q.R.S.T.U.V.'.u.t.P.P.P.W.X.Y.",
"Z.`.A. +P.P.P.P.P.T.t..+++P.P.P.++s L @+",
"  #+$+V.%+P.P.P.P.P.P.P.P.P.P.++&+*+=+-+",
"    ;+>+,+P.++t.t.++P.P.P.R.'+)+!+~+{+  ",
"    ]+^+/+++(+_+_+t.:+t.P.u.>.<+[+m     ",
"      }+|+1+2+b.b.3+4+++5+| 6+          ",
"      7+8+9+J..+.+T.P.++0++.a+          ",
"      b+c+d+J.P.P.e+%+f+g+h+i+          ",
"      j+k+l+J.P.P.%+m+n+o+p+q+          "};
