/* XPM */
static char * query_big_xpm[] = {
"20 24 2 1",
" 	c None",
".	c #000000",
"                    ",
"                    ",
"      ........      ",
"     ..   .....     ",
"    ....   .....    ",
"    .....  .....    ",
"    .....  .....    ",
"    ....   .....    ",
"           .....    ",
"          .....     ",
"          ....      ",
"         ....       ",
"         ..         ",
"         ..         ",
"         .          ",
"         .          ",
"                    ",
"        ...         ",
"       .....        ",
"       .....        ",
"       .....        ",
"       ....         ",
"                    ",
"                    "};
