/* XPM */
static char * report_big_xpm[] = {
"20 20 194 2",
"  	c None",
". 	c #45372B",
"+ 	c #746450",
"@ 	c #766654",
"# 	c #736250",
"$ 	c #625241",
"% 	c #5E4844",
"& 	c #D9C3A0",
"* 	c #EAD7B7",
"= 	c #E0CAAB",
"- 	c #9C8A71",
"; 	c #171512",
"> 	c #15120E",
", 	c #5F4946",
"' 	c #DFCAAB",
") 	c #EFE2CD",
"! 	c #F0E6D7",
"~ 	c #E8DBC9",
"{ 	c #D1BEA2",
"] 	c #BBA382",
"^ 	c #3F362B",
"/ 	c #020201",
"( 	c #000000",
"_ 	c #5D4D43",
": 	c #DFD1BF",
"< 	c #F5EDE2",
"[ 	c #FAF5EE",
"} 	c #FBF5EE",
"| 	c #F8EFE4",
"1 	c #F0E3D3",
"2 	c #BCAE9A",
"3 	c #9B8A72",
"4 	c #826F5B",
"5 	c #564642",
"6 	c #594A46",
"7 	c #605346",
"8 	c #E0D6C9",
"9 	c #F8F2EA",
"0 	c #FDF9F5",
"a 	c #FEFBF8",
"b 	c #FEFAF7",
"c 	c #FDF6F0",
"d 	c #F6EADB",
"e 	c #C3B19E",
"f 	c #7E6A5B",
"g 	c #4C3E3C",
"h 	c #584946",
"i 	c #2A2221",
"j 	c #65584A",
"k 	c #E4DACC",
"l 	c #F9F3EA",
"m 	c #FDF8F3",
"n 	c #FEFAF5",
"o 	c #FDF8F5",
"p 	c #FBF4EE",
"q 	c #FBF3EC",
"r 	c #AA9E99",
"s 	c #554643",
"t 	c #4E413D",
"u 	c #806F62",
"v 	c #28231F",
"w 	c #6E5E4F",
"x 	c #E8DECF",
"y 	c #FCF5EA",
"z 	c #FEF8EF",
"A 	c #FEF7EF",
"B 	c #FCF6F0",
"C 	c #F9F1E7",
"D 	c #FAF1E6",
"E 	c #A69A93",
"F 	c #514240",
"G 	c #5E4F49",
"H 	c #CAB695",
"I 	c #453F33",
"J 	c #624E3D",
"K 	c #A88A70",
"L 	c #F1E6D6",
"M 	c #FDF4E7",
"N 	c #FEF5EA",
"O 	c #FCF4E8",
"P 	c #F9F0E3",
"Q 	c #F7EEDE",
"R 	c #F7EDDD",
"S 	c #807A72",
"T 	c #090707",
"U 	c #0A0908",
"V 	c #161411",
"W 	c #4B3B2E",
"X 	c #766554",
"Y 	c #DECAB1",
"Z 	c #F8ECD7",
"` 	c #FDF2DF",
" .	c #FEF3E0",
"..	c #FCF1DE",
"+.	c #F8EBD7",
"@.	c #F5E8D3",
"#.	c #F2E2CE",
"$.	c #7A7167",
"%.	c #030202",
"&.	c #493A2E",
"*.	c #7C6D5C",
"=.	c #F4E4C9",
"-.	c #F9EAD0",
";.	c #FCEED4",
">.	c #F5E5CA",
",.	c #EFDFC6",
"'.	c #EAD8BE",
").	c #756C5E",
"!.	c #5D4D3C",
"~.	c #8E7D67",
"{.	c #F0DEBE",
"].	c #F1DFBE",
"^.	c #F6E5C5",
"/.	c #F5E4C5",
"(.	c #F2E0C2",
"_.	c #F0DDBF",
":.	c #E9D7BA",
"<.	c #E2CDAF",
"[.	c #6F6555",
"}.	c #584B40",
"|.	c #584A3E",
"1.	c #564739",
"2.	c #7F6B55",
"3.	c #B8A080",
"4.	c #DBC5A0",
"5.	c #E0C8A1",
"6.	c #E9D1AE",
"7.	c #EBD5B3",
"8.	c #EAD5B4",
"9.	c #EAD5B6",
"0.	c #E6D1B2",
"a.	c #CCB696",
"b.	c #665A48",
"c.	c #7B7067",
"d.	c #ECE8E5",
"e.	c #ECE5D8",
"f.	c #DAC6AA",
"g.	c #AB9177",
"h.	c #866C58",
"i.	c #907560",
"j.	c #BDA381",
"k.	c #D3B995",
"l.	c #DBC19E",
"m.	c #DEC5A1",
"n.	c #E2C8A4",
"o.	c #DAC09D",
"p.	c #514839",
"q.	c #15130E",
"r.	c #726252",
"s.	c #DECAB0",
"t.	c #EFDEC5",
"u.	c #F5E9D9",
"v.	c #E8DCCE",
"w.	c #D3C1AD",
"x.	c #BFA486",
"y.	c #9A7F66",
"z.	c #997E66",
"A.	c #AE9477",
"B.	c #C5AB88",
"C.	c #C9AF8C",
"D.	c #C7AC89",
"E.	c #3C3429",
"F.	c #010100",
"G.	c #544637",
"H.	c #685A48",
"I.	c #746A5A",
"J.	c #C4B6A5",
"K.	c #EDDFCA",
"L.	c #F4E6D0",
"M.	c #EBDCCA",
"N.	c #C5B4A3",
"O.	c #B69E86",
"P.	c #9D856F",
"Q.	c #8A7663",
"R.	c #927C67",
"S.	c #B29A7A",
"T.	c #372F25",
"U.	c #6E5F4B",
"V.	c #9A8972",
"W.	c #BBAE9C",
"X.	c #F1E6DA",
"Y.	c #F7EDDA",
"Z.	c #CCB8A0",
"`.	c #867364",
" +	c #5F4E48",
".+	c #776651",
"++	c #2E281F",
"@+	c #3C3329",
"#+	c #7E6E64",
"$+	c #4F413E",
"%+	c #463A37",
"&+	c #594946",
"*+	c #181413",
"=+	c #1B1615",
"                . . . .                 ",
"                + @ # $                 ",
"              % & * = - ; >             ",
"              , ' ) ! ~ { ] ^ / (       ",
"              _ : < [ } | 1 2 3 4 5 6   ",
"              7 8 9 0 a b c d e f g h i ",
"              j k l m n o p q r s t u v ",
"              w x y z A B C D E F G H I ",
"            J K L M N O P Q R S T U V   ",
"          W X Y Z `  ...+.@.#.$.%.      ",
"          &.*.=.-.;.;.-.>.,.'.)./       ",
"          !.~.{.].^./.(._.:.<.[.(       ",
"    }.|.1.2.3.4.5.6.7.8.9.0.a.b.(       ",
". c.d.e.f.g.h.i.j.k.l.m.n.o.p.q.        ",
". r.s.t.u.v.w.x.y.z.A.B.C.D.E.F.        ",
". G.H.I.J.K.L.M.N.O.P.Q.R.S.T.(         ",
"    ( ( U.V.W.X.Y.Z.`.s  +.+++          ",
"        ( ( @+] { #+$+$+G U             ",
"              > ; %+&+u H V             ",
"                  *+=+v I               "};
