/* XPM */
static char * table_big_xpm[] = {
"20 24 9 1",
" 	c None",
".	c #1874B1",
"+	c #3C6A88",
"@	c #5A86A5",
"#	c #78A3C2",
"$	c #606060",
"%	c #9C9999",
"&	c #D7D2D2",
"*	c #7E7C7C",
"....................",
"....................",
"....................",
"....................",
"++@###@+@#####@+@#@+",
"$$%&&&%$%&&&&&%$%&%$",
"$$*%%%*$*%%%%%*$*%*$",
"$$$$$$$$$$$$$$$$$$$$",
"$$*%%%*$*%%%%%*$*%*$",
"$$%&&&%$%&&&&&%$%&%$",
"$$*%%%*$*%%%%%*$*%*$",
"$$$$$$$$$$$$$$$$$$$$",
"$$*%%%*$*%%%%%*$*%*$",
"$$%&&&%$%&&&&&%$%&%$",
"$$*%%%*$*%%%%%*$*%*$",
"$$$$$$$$$$$$$$$$$$$$",
"$$*%%%*$*%%%%%*$*%*$",
"$$%&&&%$%&&&&&%$%&%$",
"$$*%%%*$*%%%%%*$*%*$",
"$$$$$$$$$$$$$$$$$$$$",
"$$*%%%*$*%%%%%*$*%*$",
"$$%&&&%$%&&&&&%$%&%$",
"$$*%%%*$*%%%%%*$*%*$",
"$$$$$$$$$$$$$$$$$$$$"};
