/* XPM */
static char * table_xpm[] = {
"10 12 4 1",
" 	c None",
".	c #1874B1",
"+	c #606060",
"@	c #D7D2D2",
"..........",
"..........",
"+@@+@@@+@+",
"++++++++++",
"+@@+@@@+@+",
"++++++++++",
"+@@+@@@+@+",
"++++++++++",
"+@@+@@@+@+",
"++++++++++",
"+@@+@@@+@+",
"++++++++++"};
